<svg xmlns="http://www.w3.org/2000/svg" version="1.1" xmlns:xlink="http://www.w3.org/1999/xlink" xmlns:svgjs="http://svgjs.com/svgjs" width="512" height="512" x="0" y="0" viewBox="0 0 64 64" style="enable-background:new 0 0 512 512" xml:space="preserve" class=""><g transform="matrix(6.123233995736766e-17,1,-1,6.123233995736766e-17,64.00000309944153,-0.0000030994415283203125)"><path d="M32 2.75A29.25 29.25 0 1 0 61.25 32 29.28 29.28 0 0 0 32 2.75zm11.61 36.91L32.88 50.38a1.23 1.23 0 0 1-1.76 0L20.39 39.66a1.25 1.25 0 1 1 1.77-1.77l8.59 8.59v-32a1.25 1.25 0 0 1 2.5 0V46.4l8.6-8.52a1.25 1.25 0 0 1 1.76 1.78z" data-name="Layer 7" fill="#000000" data-original="#000000" class="" opacity="1"></path></g></svg>